SplineFontDB: 3.2
FontName: Untitled1
FullName: Untitled1
FamilyName: Untitled1
Weight: Regular
Copyright: Copyright (c) 2024, KaraFae
UComments: "2024-11-5: Created with FontForge (http://fontforge.org)"
Version: 001.000
ItalicAngle: 0
UnderlinePosition: -100
UnderlineWidth: 50
Ascent: 800
Descent: 200
InvalidEm: 0
LayerCount: 2
Layer: 0 0 "Back" 1
Layer: 1 0 "Fore" 0
XUID: [1021 294 -80268739 19111]
StyleMap: 0x0000
FSType: 0
OS2Version: 0
OS2_WeightWidthSlopeOnly: 0
OS2_UseTypoMetrics: 1
CreationTime: 1730862832
ModificationTime: 1732344670
OS2TypoAscent: 0
OS2TypoAOffset: 1
OS2TypoDescent: 0
OS2TypoDOffset: 1
OS2TypoLinegap: 90
OS2WinAscent: 0
OS2WinAOffset: 1
OS2WinDescent: 0
OS2WinDOffset: 1
HheadAscent: 0
HheadAOffset: 1
HheadDescent: 0
HheadDOffset: 1
OS2Vendor: 'PfEd'
DEI: 91125
Encoding: ISO8859-1
UnicodeInterp: none
NameList: AGL For New Fonts
DisplaySize: -48
AntiAlias: 1
FitToEm: 0
WidthSeparation: 150
WinInfo: 0 51 20
BeginChars: 256 57

StartChar: a
Encoding: 97 97 0
Width: 671
Flags: HW
LayerCount: 2
Back
SplineSet
-952.854492188 800 m 1
 -527.854492188 800 l 1
 -869.854492188 16 l 1
 -490.854492188 -200 l 1
 -770.854492188 -200 l 1
 -1060.85449219 -15 l 1
 -719.854492188 674 l 1
 -1028.85449219 669 l 1
 -952.854492188 800 l 1
EndSplineSet
Fore
SplineSet
162 800 m 1
 587 800 l 1
 245 16 l 1
 624 -200 l 1
 344 -200 l 1
 54 -15 l 1
 395 674 l 1
 86 669 l 1
 162 800 l 1
EndSplineSet
EndChar

StartChar: b
Encoding: 98 98 1
Width: 601
Flags: HW
LayerCount: 2
Back
SplineSet
53.9599609375 800 m 1
 193.959960938 800 l 1
 191.959960938 632 l 1
 351.959960938 800 l 1
 495.959960938 800 l 1
 499.959960938 -200 l 1
 357.959960938 -200 l 25
 357.959960938 610 l 25
 191.959960938 451 l 25
 191.959960938 -200 l 1
 45.9599609375 -200 l 1
 53.9599609375 800 l 1
EndSplineSet
Fore
SplineSet
84 800 m 5
 224 800 l 5
 222 632 l 5
 382 800 l 5
 526 800 l 5
 530 -200 l 5
 388 -200 l 29
 388 610 l 29
 222 451 l 29
 222 -200 l 5
 76 -200 l 5
 84 800 l 5
EndSplineSet
EndChar

StartChar: c
Encoding: 99 99 2
Width: 701
Flags: HW
LayerCount: 2
Fore
SplineSet
69 636 m 5
 142 800 l 5
 170 744 l 5
 272 744 l 5
 603 744 l 5
 265 148 l 5
 432 -49 l 5
 637 -49 l 5
 638 -196 l 5
 96 -197 l 5
 98 -50 l 5
 185 -50 l 5
 55 104 l 5
 333 638 l 5
 69 636 l 5
EndSplineSet
EndChar

StartChar: d
Encoding: 100 100 3
Width: 564
Flags: HW
LayerCount: 2
Back
Fore
SplineSet
74 800 m 1
 201 800 l 1
 201 576 l 1
 389 576 l 1
 391 800 l 1
 495 800 l 1
 495 433 l 1
 199 431 l 1
 195 -36 l 25
 391 -35 l 25
 393 227 l 1
 487 227 l 1
 487 -200 l 1
 75 -200 l 1
 74 800 l 1
EndSplineSet
EndChar

StartChar: e
Encoding: 101 101 4
Width: 673
Flags: HW
LayerCount: 2
Back
Fore
SplineSet
76 800 m 1
 207 798 l 1
 205 645 l 1
 354 800 l 1
 606 800 l 1
 606 173 l 1
 230 172 l 1
 230 -26 l 1
 552 -25 l 1
 505 -200 l 1
 76 -200 l 25
 75 318 l 25
 466 324 l 25
 465 608 l 1
 465 694 l 1
 229 470 l 1
 75 444 l 1
 76 800 l 1
EndSplineSet
EndChar

StartChar: f
Encoding: 102 102 5
Width: 481
Flags: HW
LayerCount: 2
Back
Fore
SplineSet
55 326 m 25
 151 443 l 1
 228 388 l 25
 135 255 l 1
 55 326 l 25
59 584 m 25
 155 701 l 1
 232 646 l 25
 139 513 l 1
 59 584 l 25
407 800 m 1
 408 -200 l 1
 59 -200 l 25
 85 -69 l 1
 287 -68 l 25
 289 768 l 1
 407 800 l 1
EndSplineSet
EndChar

StartChar: g
Encoding: 103 103 6
Width: 544
Flags: HW
LayerCount: 2
Back
Fore
SplineSet
354 -71 m 1
 273 78 l 1
 192 -71 l 1
 354 -71 l 1
177 800 m 1
 177 556 l 1
 281 390 l 25
 372 552 l 25
 376 800 l 25
 478 800 l 25
 476 550 l 1
 314 278 l 1
 488 -200 l 5
 53 -200 l 1
 234 278 l 1
 74 555 l 1
 75 800 l 1
 177 800 l 1
EndSplineSet
EndChar

StartChar: h
Encoding: 104 104 7
Width: 543
Flags: HW
LayerCount: 2
Back
Fore
SplineSet
90 800 m 25
 493 800 l 1
 280 450 l 1
 280 430 l 1
 469 233 l 1
 468 -201 l 25
 80 -197 l 25
 80 -86 l 25
 325 -87 l 25
 331 217 l 1
 218 341 l 25
 122 250 l 1
 58 328 l 1
 158 433 l 1
 52 581 l 1
 148 580 l 1
 174 552 l 1
 276 706 l 1
 64 707 l 1
 90 800 l 25
EndSplineSet
EndChar

StartChar: i
Encoding: 105 105 8
Width: 659
Flags: HW
LayerCount: 2
Back
Fore
SplineSet
471 176 m 25
 597 210 l 25
 595 -146 l 25
 471 -200 l 25
 471 176 l 25
43 799 m 1
 535 800 l 1
 535 657 l 1
 371 656 l 1
 370 584 l 25
 549 390 l 1
 307 284 l 1
 309 -200 l 1
 179 -200 l 1
 181 339 l 1
 349 399 l 25
 43 799 l 1
EndSplineSet
EndChar

StartChar: j
Encoding: 106 106 9
Width: 535
Flags: HW
LayerCount: 2
Back
Fore
SplineSet
77 440 m 1
 85 776 l 1
 222 800 l 1
 222 463 l 1
 348 333 l 1
 346 785 l 1
 470 800 l 1
 470 217 l 1
 274 -90 l 1
 274 -103 l 1
 420 -105 l 1
 384 -200 l 25
 48 -200 l 1
 332 186 l 1
 77 440 l 1
EndSplineSet
EndChar

StartChar: k
Encoding: 107 107 10
Width: 549
Flags: HW
LayerCount: 2
Back
Fore
SplineSet
74 -201 m 25
 70 402 l 25
 214 415 l 25
 216 -178 l 25
 74 -201 l 25
76 581 m 1
 76 800 l 1
 486 799 l 1
 486 451 l 1
 359 446 l 1
 359 683 l 1
 217 682 l 1
 218 600 l 25
 76 581 l 1
EndSplineSet
EndChar

StartChar: l
Encoding: 108 108 11
Width: 643
Flags: HW
LayerCount: 2
Back
Fore
SplineSet
428 175 m 25
 572 220 l 1
 572 -199 l 25
 78 -198 l 25
 80 443 l 1
 216 474 l 1
 218 -95 l 1
 426 -93 l 1
 428 175 l 25
55 763 m 1
 133 803 l 25
 368 647 l 1
 288 584 l 25
 55 763 l 1
EndSplineSet
EndChar

StartChar: m
Encoding: 109 109 12
Width: 645
Flags: HW
LayerCount: 2
Back
Fore
SplineSet
572 445 m 5
 572 -166 l 5
 403 -198 l 5
 405 197 l 5
 243 60 l 29
 71 48 l 5
 71 397 l 5
 243 409 l 5
 243 229 l 5
 408 423 l 5
 572 445 l 5
71 800 m 5
 243 800 l 5
 243 644 l 5
 399 644 l 5
 400 800 l 5
 572 800 l 5
 572 507 l 5
 71 508 l 5
 71 800 l 5
EndSplineSet
EndChar

StartChar: n
Encoding: 110 110 13
Width: 687
Flags: HW
LayerCount: 2
Back
Fore
SplineSet
393 -46 m 1
 345 31 l 5
 297 -46 l 1
 393 -46 l 1
47 -200 m 1
 393 472 l 1
 393 800 l 1
 528 800 l 1
 527 471 l 1
 427 183 l 1
 643 -200 l 1
 47 -200 l 1
85 800 m 1
 239 800 l 1
 239 473 l 1
 85 473 l 1
 85 800 l 1
EndSplineSet
EndChar

StartChar: o
Encoding: 111 111 14
Width: 630
Flags: HW
LayerCount: 2
Back
Fore
SplineSet
563 801 m 1
 553 -161 l 1
 406 -199 l 1
 406 249 l 1
 208 -186 l 5
 53 -124 l 1
 239 290 l 1
 57 626 l 1
 191 720 l 1
 323 480 l 1
 402 655 l 1
 402 801 l 1
 563 801 l 1
EndSplineSet
EndChar

StartChar: p
Encoding: 112 112 15
Width: 644
Flags: HW
LayerCount: 2
Back
Fore
SplineSet
412 275 m 5
 295 352 l 5
 497 616 l 5
 599 539 l 29
 532 457 l 5
 532 -200 l 5
 412 -200 l 5
 412 275 l 5
64 26 m 5
 66 509 l 5
 297 800 l 5
 400 720 l 5
 213 497 l 5
 206 26 l 5
 64 26 l 5
EndSplineSet
EndChar

StartChar: q
Encoding: 113 113 16
Width: 559
Flags: HW
LayerCount: 2
Back
Fore
SplineSet
111 800 m 5
 514 790 l 1
 468 688 l 1
 315 351 l 1
 369 310 l 1
 357 263 l 1
 358 143 l 1
 462 101 l 1
 359 0 l 1
 358 -155 l 1
 200 -200 l 1
 201 167 l 1
 46 201 l 1
 87 276 l 1
 151 376 l 1
 177 418 l 1
 275 642 l 25
 97 642 l 25
 111 800 l 5
EndSplineSet
EndChar

StartChar: r
Encoding: 114 114 17
Width: 588
Flags: HW
LayerCount: 2
Back
Fore
SplineSet
97 800 m 5
 246 800 l 5
 246 329 l 5
 276 378 l 5
 367 548 l 5
 369 800 l 5
 518 800 l 5
 516 -119 l 5
 370 -201 l 29
 370 155 l 5
 370 191 l 29
 182 -201 l 5
 48 -121 l 5
 190 194 l 5
 97 194 l 5
 97 800 l 5
EndSplineSet
EndChar

StartChar: s
Encoding: 115 115 18
Width: 634
Flags: HW
LayerCount: 2
Back
Fore
SplineSet
245 549 m 1
 363 682 l 1
 482 615 l 1
 371 469 l 1
 245 549 l 1
69 800 m 25
 221 800 l 1
 221 331 l 1
 589 -200 l 1
 70 -200 l 1
 114 -61 l 1
 311 -61 l 25
 70 249 l 1
 69 800 l 25
EndSplineSet
EndChar

StartChar: t
Encoding: 116 116 19
Width: 565
Flags: HW
LayerCount: 2
Back
Fore
SplineSet
357 23 m 1
 358 221 l 1
 486 234 l 1
 485 -200 l 25
 76 -200 l 1
 143 -80 l 1
 350 -78 l 25
 365 -61 l 25
 365 4 l 1
 357 23 l 1
120 797 m 25
 499 797 l 25
 499 438 l 25
 233 217 l 25
 44 219 l 25
 372 514 l 1
 355 645 l 25
 105 644 l 1
 120 797 l 25
EndSplineSet
EndChar

StartChar: u
Encoding: 117 117 20
Width: 572
Flags: HW
LayerCount: 2
Back
Fore
SplineSet
73 748 m 1
 217 800 l 1
 217 300 l 1
 357 300 l 1
 357 748 l 1
 503 800 l 25
 503 145 l 1
 215 145 l 25
 215 -167 l 1
 73 -200 l 25
 73 748 l 1
EndSplineSet
EndChar

StartChar: v
Encoding: 118 118 21
Width: 578
Flags: HW
LayerCount: 2
Back
Fore
SplineSet
365 274 m 29
 493 328 l 29
 493 -184 l 29
 365 -200 l 29
 365 274 l 29
106 673 m 29
 142 800 l 5
 532 800 l 29
 177 116 l 29
 177 -190 l 29
 63 -199 l 29
 62 123 l 29
 327 672 l 5
 106 673 l 29
EndSplineSet
EndChar

StartChar: w
Encoding: 119 119 22
Width: 539
Flags: HW
LayerCount: 2
Back
Fore
SplineSet
66 -200 m 25
 66 208 l 1
 186 208 l 25
 186 -84 l 1
 414 -84 l 1
 413 -200 l 1
 66 -200 l 25
82 498 m 25
 390 800 l 25
 494 723 l 25
 409 637 l 25
 411 257 l 1
 269 256 l 1
 269 500 l 1
 174 410 l 1
 82 498 l 25
EndSplineSet
EndChar

StartChar: x
Encoding: 120 120 23
Width: 608
Flags: HW
LayerCount: 2
Back
Fore
SplineSet
202 800 m 29
 204 254 l 29
 555 -141 l 29
 555 -200 l 29
 86 -196 l 29
 144 -66 l 29
 280 -66 l 29
 65 176 l 29
 69 720 l 29
 202 800 l 29
343 725 m 29
 474 800 l 29
 477 332 l 29
 345 290 l 29
 343 725 l 29
EndSplineSet
EndChar

StartChar: y
Encoding: 121 121 24
Width: 547
Flags: HW
LayerCount: 2
Back
Fore
SplineSet
228 204 m 25
 365 -200 l 25
 86 -200 l 25
 115 -99 l 25
 175 -99 l 25
 79 204 l 25
 228 204 l 25
249 800 m 25
 393 800 l 25
 499 518 l 25
 355 517 l 25
 249 800 l 25
50 800 m 25
 194 800 l 1
 493 -21 l 25
 349 -23 l 1
 50 800 l 25
EndSplineSet
EndChar

StartChar: z
Encoding: 122 122 25
Width: 556
Flags: HW
LayerCount: 2
Back
Fore
SplineSet
353 310 m 29
 359 770 l 5
 483 800 l 29
 485 -151 l 29
 357 -199 l 5
 357 54 l 29
 189 -200 l 5
 55 -156 l 5
 353 310 l 29
76 770 m 29
 196 800 l 29
 198 424 l 29
 76 394 l 29
 76 770 l 29
EndSplineSet
EndChar

StartChar: A
Encoding: 65 65 26
Width: 1030
Flags: HW
LayerCount: 2
Fore
SplineSet
648 55 m 1049
457 24 m 1049
793 674 m 1
 457 24 l 1
 512 -24 l 5
 704 -14 l 1
 648 55 l 1
 985 800 l 1
 154 800 l 1
 78 669 l 1
 387 674 l 1
 46 -15 l 1
 336 -200 l 1
 616 -200 l 9
 224 -24 l 25
 562 674 l 25
 793 674 l 1
EndSplineSet
EndChar

StartChar: B
Encoding: 66 66 27
Width: 917
Flags: HW
LayerCount: 2
Fore
SplineSet
386 -200 m 25
 386 610 l 25
 222 451 l 25
 222 -200 l 1
 74 -200 l 1
 74 800 l 1
 222 800 l 1
 222 632 l 1
 380 800 l 1
 532 800 l 1
 532 632 l 1
 690 800 l 1
 842 800 l 1
 842 -200 l 1
 690 -200 l 25
 690 610 l 25
 532 451 l 25
 532 -200 l 1
 386 -200 l 25
EndSplineSet
EndChar

StartChar: C
Encoding: 67 67 28
Width: 969
Flags: HW
LayerCount: 2
Fore
SplineSet
89 -200 m 1
 171 -53 l 1
 178 -53 l 1
 48 101 l 1
 326 635 l 1
 62 633 l 1
 135 797 l 1
 163 741 l 1
 265 741 l 9
 484 742 l 25
 535 796 l 1
 563 740 l 1
 622 740 l 1
 909 740 l 1
 647 120 l 1
 788 -53 l 1
 789 -53 l 1
 924 -200 l 1
 514 -201 l 1
 89 -200 l 1
563 -57 m 1
 459 100 l 13
 692 626 l 25
 506 629 l 25
 254 101 l 25
 380 -57 l 25
 519 -57 l 25
 563 -57 l 1
EndSplineSet
EndChar

StartChar: D
Encoding: 68 68 29
Width: 908
Flags: HW
LayerCount: 2
Fore
SplineSet
74 -200 m 1
 74 800 l 1
 201 800 l 1
 201 596 l 1
 389 596 l 1
 391 800 l 1
 518 800 l 1
 518 596 l 1
 706 596 l 1
 706 800 l 1
 833 800 l 1
 833 453 l 1
 201 451 l 1
 201 -36 l 25
 389 -35 l 25
 389 247 l 1
 518 248 l 1
 518 -33 l 1
 706 -35 l 25
 706 247 l 1
 833 247 l 1
 833 -200 l 1
 74 -200 l 1
EndSplineSet
EndChar

StartChar: E
Encoding: 69 69 30
Width: 785
Flags: HW
LayerCount: 2
Fore
SplineSet
338 546 m 1
 341 393 l 1
 589 546 l 1
 583 277 l 1
 75 274 l 1
 75 -200 l 25
 656 -200 l 1
 703 -65 l 1
 196 -66 l 1
 196 172 l 1
 716 179 l 25
 716 800 l 25
 434 643 l 25
 434 800 l 17
 196 643 l 1
 198 800 l 1
 76 800 l 1
 75 393 l 1
 338 546 l 1
EndSplineSet
EndChar

StartChar: F
Encoding: 70 70 31
Width: 777
Flags: HW
LayerCount: 2
Fore
SplineSet
86 326 m 25
 182 443 l 1
 259 388 l 25
 166 255 l 1
 86 326 l 25
90 584 m 25
 186 701 l 1
 263 646 l 25
 170 513 l 1
 90 584 l 25
328 326 m 25
 424 443 l 1
 501 388 l 25
 408 255 l 1
 328 326 l 25
332 584 m 25
 428 701 l 1
 505 646 l 25
 412 513 l 1
 332 584 l 25
703 800 m 1
 704 -200 l 1
 52 -200 l 25
 78 -69 l 1
 583 -68 l 25
 585 768 l 1
 703 800 l 1
EndSplineSet
EndChar

StartChar: G
Encoding: 71 71 32
Width: 716
Flags: HW
LayerCount: 2
Back
Fore
SplineSet
478 32 m 5
 418 -55 l 5
 480 -54 l 5
 548 -58 l 5
 478 32 l 5
243 24 m 1
 169 -64 l 1
 235 -65 l 1
 299 -64 l 1
 243 24 l 1
355 290 m 1
 289 195 l 1
 354 65 l 1
 417 196 l 1
 355 290 l 1
420 189 m 1
 520 593 l 1
 520 800 l 1
 653 800 l 1
 653 586 l 1
 486 87 l 1
 420 189 l 1
283 194 m 1
 212 85 l 1
 66 579 l 1
 66 800 l 1
 204 800 l 1
 204 593 l 1
 283 194 l 1
426 469 m 1
 653 -200 l 1
 374 -200 l 1
 66 -199 l 1
 291 469 l 1
 297 800 l 1
 427 800 l 1
 426 469 l 1
EndSplineSet
EndChar

StartChar: H
Encoding: 72 72 33
Width: 819
Flags: HW
LayerCount: 2
Fore
SplineSet
154 617 m 1
 416 339 l 1
 356 292 l 1
 67 616 l 1
 154 617 l 1
444 567 m 1
 172 306 l 1
 64 306 l 1
 150.905273438 398.624023438 298.412109375 536.904296875 383 627 c 1
 444 567 l 1
96 800 m 25
 769 800 l 1
 579 466 l 1
 579 446 l 1
 745 233 l 1
 744 -201 l 25
 65 -200 l 25
 65 -86 l 25
 601 -87 l 25
 608 230 l 1
 494 398 l 1
 356 292 l 1
 305 352 l 1
 425 458 l 1
 326 568 l 1
 383 627 l 1
 507 506 l 1
 629 706 l 1
 70 707 l 1
 96 800 l 25
EndSplineSet
EndChar

StartChar: I
Encoding: 73 73 34
Width: 1015
Flags: HW
LayerCount: 2
Fore
SplineSet
43 799 m 1
 535 800 l 1
 535 657 l 1
 371 656 l 1
 370 584 l 25
 549 390 l 1
 307 284 l 1
 309 -200 l 1
 179 -200 l 1
 181 339 l 1
 349 399 l 25
 43 799 l 1
827 176 m 25
 953 210 l 25
 951 -146 l 25
 827 -200 l 25
 827 176 l 25
399 799 m 1
 891 800 l 1
 891 657 l 1
 727 656 l 1
 726 584 l 25
 905 390 l 1
 663 284 l 1
 665 -200 l 1
 535 -200 l 1
 537 339 l 1
 705 399 l 25
 399 799 l 1
EndSplineSet
EndChar

StartChar: J
Encoding: 74 74 35
Width: 794
Flags: HW
LayerCount: 2
Back
Fore
SplineSet
70 798 m 25
 184 799 l 1
 184 589 l 1
 330 428 l 25
 330 800 l 1
 444 800 l 1
 444 561 l 1
 590 451 l 25
 590 800 l 1
 704 800 l 1
 704 236 l 29
 245 -100 l 1
 736 -101 l 1
 732 -200 l 1
 75 -200 l 1
 76 -99 l 1
 524 286 l 1
 524 327 l 1
 460 388 l 1
 344 276 l 1
 197 424 l 1
 70 556 l 1
 70 798 l 25
EndSplineSet
EndChar

StartChar: K
Encoding: 75 75 36
Width: 816
Flags: HW
LayerCount: 2
Fore
SplineSet
348 -201 m 25
 344 397 l 25
 488 415 l 25
 490 -178 l 25
 348 -201 l 25
74 -201 m 25
 74 397 l 25
 214 421 l 25
 216 -176 l 25
 74 -201 l 25
74 800 m 17
 74 579 l 1
 214 597 l 25
 214 682 l 1
 344 683 l 1
 344 537 l 1
 479 555 l 25
 479 635 l 1
 609 636 l 1
 609 487 l 1
 753 505 l 1
 753 800 l 9
 74 800 l 17
EndSplineSet
EndChar

StartChar: L
Encoding: 76 76 37
Width: 937
Flags: HW
LayerCount: 2
Fore
SplineSet
53 731 m 5
 164 803 l 29
 406 648 l 5
 295 575 l 29
 53 731 l 5
436 731 m 1
 547 803 l 25
 789 648 l 1
 678 575 l 25
 436 731 l 1
81 -200 m 1
 83 443 l 1
 219 474 l 1
 221 -95 l 1
 399 -93 l 1
 401 175 l 25
 545 220 l 1
 545 -92 l 9
 723 -93 l 17
 723 175 l 25
 867 220 l 1
 867 -200 l 25
 81 -200 l 1
EndSplineSet
EndChar

StartChar: M
Encoding: 77 77 38
Width: 970
Flags: HW
LayerCount: 2
Back
Fore
SplineSet
395 391 m 17
 567 408 l 1
 567 228 l 1
 732 391 l 1
 896 413 l 1
 896 -167 l 1
 727 -199 l 1
 729 196 l 1
 588 64 l 25
 416 56 l 25
 419 187 l 25
 278 47 l 25
 80 47 l 1
 80 391 l 1
 257 408 l 1
 257 228 l 9
 395 391 l 17
395 643 m 1
 395 752 l 1
 567 799 l 1
 567 643 l 1
 723 643 l 1
 724 752 l 1
 896 799 l 1
 896 506 l 9
 67 507 l 17
 67 752 l 9
 239 800 l 25
 239 643 l 25
 395 643 l 1
EndSplineSet
EndChar

StartChar: N
Encoding: 78 78 39
Width: 1075
Flags: HW
LayerCount: 2
Back
Fore
SplineSet
242 460 m 1
 243 579 l 25
 104 578 l 1
 106 709 l 25
 370 708 l 25
 370 461 l 25
 242 460 l 1
536 -9 m 1
 536 283 l 1
 337 -9 l 1
 536 -9 l 1
830 187 m 21
 1030 -200 l 1
 43 -200 l 25
 447 436 l 25
 453 799 l 25
 620 799 l 25
 622 436 l 1
 727 306 l 9
 726 652 l 1
 874 655 l 25
 872 436 l 1
 830 187 l 21
EndSplineSet
EndChar

StartChar: O
Encoding: 79 79 40
Width: 882
Flags: HW
LayerCount: 2
Fore
SplineSet
219.8828125 614.758789062 m 1
 218 720 l 1
 75 720 l 1
 73.7333984375 624.90234375 l 1
 224 290 l 1
 51 -124 l 1
 207 -186 l 1
 405 249 l 1
 405 -199 l 1
 555 -134 l 1
 556.36328125 212.297851562 l 1
 669 317 l 17
 661 -200 l 1
 803 -200 l 1
 813 800 l 1
 662 800 l 1
 663 495 l 1
 585 422 l 25
 519 358 l 1
 523 800 l 1
 387 800 l 1
 387 655 l 1
 298 480 l 5
 219.8828125 614.758789062 l 1
EndSplineSet
EndChar

StartChar: P
Encoding: 80 80 41
Width: 908
Flags: HW
LayerCount: 2
Fore
SplineSet
334 303 m 1
 256 364 l 1
 633 800 l 1
 735 713 l 1
 501 437 l 1
 499 -201 l 1
 337 -200 l 1
 334 303 l 1
834 371.453125 m 1
 832 503 l 9
 724 533 l 1
 580 352 l 1
 697 352 l 1
 697 -200 l 1
 842 -200 l 1
 834 371.453125 l 1
64 26 m 1
 66 509 l 1
 297 800 l 1
 393 720 l 1
 206 497 l 1
 199 26 l 1
 64 26 l 1
EndSplineSet
EndChar

StartChar: Q
Encoding: 81 81 42
Width: 876
Flags: HW
LayerCount: 2
Back
Fore
SplineSet
596 643 m 9
 493 418 l 1
 467 376 l 1
 403 276 l 1
 372 222 l 1
 508 191 l 1
 516 -200 l 1
 674 -155 l 1
 675 0 l 1
 778 101 l 1
 674 143 l 1
 673 263 l 1
 685 310 l 1
 631 351 l 1
 785 688 l 1
 832 800 l 1
 557 798 l 1
 157 798 l 1
 102 646 l 25
 280 646 l 25
 177 416 l 1
 151 374 l 1
 87 274 l 1
 46 199 l 1
 218 165 l 1
 217 -202 l 1
 358 -157 l 1
 359 -2 l 1
 508 191 l 1
 372 222 l 1
 380 234 l 1
 403 276 l 1
 315 349 l 1
 469 643 l 1
 596 643 l 9
EndSplineSet
EndChar

StartChar: R
Encoding: 82 82 43
Width: 869
Flags: HW
LayerCount: 2
Fore
SplineSet
368 -200 m 25
 370 155 l 1
 370 191 l 25
 182 -200 l 1
 48 -121 l 1
 190 194 l 1
 97 194 l 1
 97 800 l 1
 246 800 l 1
 246 329 l 1
 276 378 l 1
 367 548 l 1
 369 800 l 9
 527 800 l 17
 527 329 l 1
 557 378 l 1
 648 548 l 1
 650 800 l 1
 799 800 l 1
 797 -119 l 1
 651 -200 l 25
 651 155 l 1
 651 191 l 25
 463 -200 l 9
 368 -200 l 25
EndSplineSet
EndChar

StartChar: S
Encoding: 83 83 44
Width: 943
Flags: HW
LayerCount: 2
Fore
SplineSet
69 800 m 25
 221 800 l 1
 221 331 l 1
 589 -200 l 1
 70 -200 l 1
 114 -61 l 1
 311 -61 l 25
 70 302 l 1
 69 800 l 25
554 549 m 1
 672 682 l 1
 791 615 l 1
 680 469 l 1
 554 549 l 1
378 800 m 25
 530 800 l 1
 530 331 l 1
 898 -200 l 1
 379 -200 l 1
 423 -61 l 1
 620 -61 l 25
 379 302 l 1
 378 800 l 25
EndSplineSet
EndChar

StartChar: T
Encoding: 84 84 45
Width: 938
Flags: HW
LayerCount: 2
Fore
SplineSet
127 800 m 25
 526 800 l 25
 520 513 l 25
 240 217 l 25
 51 219 l 25
 361 514 l 1
 362 645 l 25
 125 644 l 5
 127 800 l 25
726 23 m 1
 727 221 l 1
 863 234 l 1
 862 -200 l 25
 54 -200 l 1
 121 -60 l 1
 719 -58 l 25
 734 -41 l 25
 734 4 l 1
 726 23 l 1
489 800 m 25
 868 800 l 25
 868 438 l 25
 602 217 l 25
 413 219 l 25
 722 514 l 1
 724 645 l 25
 474 644 l 1
 489 800 l 25
EndSplineSet
EndChar

StartChar: U
Encoding: 85 85 46
Width: 859
Flags: HW
LayerCount: 2
Fore
SplineSet
644 300 m 21
 644 748 l 1
 790 800 l 1
 790 145 l 1
 503 145 l 1
 215 145 l 25
 215 -167 l 1
 73 -200 l 25
 73 748 l 1
 217 800 l 1
 217 300 l 1
 357 300 l 1
 357 748 l 1
 503 800 l 1
 504 300 l 9
 644 300 l 21
EndSplineSet
EndChar

StartChar: V
Encoding: 86 86 47
Width: 856
Flags: HW
LayerCount: 2
Fore
SplineSet
106 673 m 25
 142 800 l 1
 532 800 l 25
 177 116 l 25
 177 -190 l 25
 63 -199 l 25
 62 123 l 25
 327 672 l 1
 106 673 l 25
638 274 m 25
 766 328 l 25
 766 -184 l 25
 638 -200 l 25
 638 274 l 25
385 673 m 25
 421 800 l 1
 811 800 l 25
 456 116 l 25
 456 -190 l 25
 342 -199 l 25
 341 123 l 25
 606 672 l 1
 385 673 l 25
EndSplineSet
EndChar

StartChar: W
Encoding: 87 87 48
Width: 797
Flags: HW
LayerCount: 2
Fore
SplineSet
508 608 m 1
 679 800 l 1
 746 738 l 1
 695 673 l 25
 693 257 l 1
 582 256 l 1
 581 539 l 1
 508 608 l 1
66 -200 m 25
 66 208 l 1
 186 208 l 25
 186 -84 l 1
 727 -85 l 5
 726 -201 l 5
 66 -200 l 25
82 498 m 25
 390 800 l 25
 494 723 l 25
 409 637 l 25
 411 257 l 1
 269 256 l 1
 269 500 l 1
 174 410 l 1
 82 498 l 25
EndSplineSet
EndChar

StartChar: X
Encoding: 88 88 49
Width: 919
Flags: HW
LayerCount: 2
Fore
SplineSet
202 800 m 25
 204 254 l 25
 555 -141 l 25
 555 -200 l 25
 86 -200 l 25
 144 -66 l 25
 280 -66 l 25
 65 176 l 25
 69 720 l 25
 202 800 l 25
513 800 m 25
 515 254 l 25
 866 -141 l 25
 866 -200 l 25
 397 -200 l 25
 455 -66 l 25
 591 -66 l 25
 376 176 l 25
 380 720 l 25
 513 800 l 25
654 725 m 25
 785 800 l 25
 788 332 l 25
 656 290 l 25
 654 725 l 25
EndSplineSet
EndChar

StartChar: Y
Encoding: 89 89 50
Width: 803
Flags: HW
LayerCount: 2
Fore
SplineSet
309 800 m 25
 453 800 l 1
 752 -21 l 25
 608 -23 l 1
 309 800 l 25
223 204 m 25
 360 -200 l 25
 81 -200 l 25
 110 -99 l 25
 170 -99 l 25
 74 204 l 25
 223 204 l 25
501 800 m 25
 645 800 l 25
 751 518 l 25
 607 517 l 25
 501 800 l 25
50 800 m 25
 194 800 l 1
 493 -21 l 25
 349 -23 l 1
 50 800 l 25
EndSplineSet
EndChar

StartChar: Z
Encoding: 90 90 51
Width: 849
Flags: HW
LayerCount: 2
Fore
SplineSet
342 310 m 17
 466 340 l 1
 482 -200 l 1
 346 -200 l 1
 346 54 l 1
 178 -200 l 1
 44 -200 l 5
 342 310 l 17
646 310 m 1
 652 770 l 1
 776 800 l 25
 778 -151 l 25
 650 -199 l 1
 650 54 l 25
 482 -200 l 1
 346 -200 l 1
 646 310 l 1
120 770 m 25
 240 800 l 25
 242 424 l 25
 120 394 l 25
 120 770 l 25
EndSplineSet
EndChar

StartChar: zero
Encoding: 48 48 53
Width: 700
Flags: HW
LayerCount: 2
Fore
SplineSet
74 -200 m 1
 75 803 l 1
 246 800 l 25
 246 407 l 1
 624 708 l 5
 624 -200 l 1
 432 -200 l 1
 432 327 l 1
 258 207 l 1
 258 -200 l 1
 74 -200 l 1
EndSplineSet
EndChar

StartChar: one
Encoding: 49 49 54
Width: 696
Flags: HW
LayerCount: 2
Fore
SplineSet
247 800 m 25
 74 800 l 1
 74 -200 l 1
 258 -200 l 1
 387 -200 l 1
 624 -200 l 9
 624 -39 l 25
 508 -39 l 25
 397 -39 l 25
 247 -39 l 29
 247 800 l 25
EndSplineSet
EndChar

StartChar: two
Encoding: 50 50 55
Width: 699
Flags: HW
LayerCount: 2
Fore
SplineSet
247 800 m 29
 74 800 l 1
 74 -200 l 1
 258 -200 l 1
 387 -200 l 1
 624 -200 l 9
 624 224 l 25
 458 224 l 25
 455 -39 l 25
 247 -39 l 25
 247 800 l 29
EndSplineSet
EndChar

StartChar: exclam
Encoding: 33 33 56
Width: 536
Flags: HW
LayerCount: 2
Back
Fore
SplineSet
105 -199 m 29
 189 -115 l 29
 328 -199 l 25
 412 -105 l 25
 310 -17 l 25
 313 262 l 25
 423 262 l 25
 482 780 l 25
 416 800 l 25
 137 628 l 29
 175 556 l 29
 368 648 l 25
 349 338 l 25
 130 342 l 29
 100 254 l 29
 192 260 l 29
 191 -21 l 29
 47 -111 l 29
 105 -199 l 29
EndSplineSet
EndChar
